# xmcd
#
# Track frame offsets:
#	150
#	21643
#	41312
#	58981
#	81506
#	100834
#	121812
#	141244
#	159242
#	177267
#	197124
#	216883
#	235666
#	259786
#
# Disc length: 3762 seconds
#
# Revision: 1
# Processed by: cddbd v1.5.1PL2 Copyright (c) Steve Scherf et al.
# Submitted via: audiograbber 1.83.01
#
DISCID=c50eb00e
DTITLE=Senait Mehari - Mein Weg
DYEAR=1900
DGENRE=Blues
TTITLE0=Das Schicksal
TTITLE1=Hey Du
TTITLE2=Mit Dir
TTITLE3=Kap geza hadime
TTITLE4=Ich bin OK
TTITLE5=Das Spiel
TTITLE6=Weck mich auf
TTITLE7=Was passiert morgen
TTITLE8=Was passiert morgen 2
TTITLE9=Schrei
TTITLE10=Wenn die Nacht
TTITLE11=Libey
TTITLE12=Verzeih mir
TTITLE13=Das wahre Leben
EXTD=
EXTT0=
EXTT1=
EXTT2=
EXTT3=
EXTT4=
EXTT5=
EXTT6=
EXTT7=
EXTT8=
EXTT9=
EXTT10=
EXTT11=
EXTT12=
EXTT13=
PLAYORDER=
